<svg version="1.2" baseProfile="tiny-ps" xmlns="http://www.w3.org/2000/svg" viewBox="0 0 150 120">
	<title>Leuq</title>
	<defs></defs><g id="Calque_2"><g id="Calque_1-2"><path class="cls-1" d="M26.32,41.18a58.61,58.61,0,0,0,.92,9.44H3.75A3.74,3.74,0,0,1,0,46.88V43.12a3.74,3.74,0,0,1,3.75-3.74H26.36C26.34,39.87,26.32,40.68,26.32,41.18ZM9.11,9.12,11,5.88A3.75,3.75,0,0,1,16.11,4.5l18,10.37A47.73,47.73,0,0,0,29,24.93L10.48,14.25A3.76,3.76,0,0,1,9.11,9.12Zm22.57,54.4A57.81,57.81,0,0,0,38,72.88L16.11,85.5A3.75,3.75,0,0,1,11,84.12L9.11,80.88a3.76,3.76,0,0,1,1.37-5.13Zm84.57-22.27A41.05,41.05,0,0,1,106,68.39c-3.9,4.45-10,13.78-12.28,21.6H82.51v0A13.22,13.22,0,0,1,83,86.62,74.21,74.21,0,0,1,97.58,61a30,30,0,1,0-45.16,0A73.94,73.94,0,0,1,67,86.67,11.2,11.2,0,0,1,67.5,90v0H56.25C54,82.17,47.86,72.84,44,68.39a41.24,41.24,0,1,1,72.29-27.14ZM78.75,22.5A3.75,3.75,0,0,1,75,26.25a15,15,0,0,0-15,15,3.75,3.75,0,0,1-7.5,0A22.52,22.52,0,0,1,75,18.75,3.75,3.75,0,0,1,78.75,22.5Zm-22.5,75h37.5l0,10.12a3.81,3.81,0,0,1-.62,2.07l-5.75,8.63A3.73,3.73,0,0,1,84.24,120H65.76a3.73,3.73,0,0,1-3.12-1.68l-5.75-8.63a3.71,3.71,0,0,1-.63-2.07Zm84.64-16.63L139,84.12a3.75,3.75,0,0,1-5.12,1.38L112,72.87a48.65,48.65,0,0,0,6.18-9.43l21.32,12.31A3.75,3.75,0,0,1,140.89,80.87ZM120.9,25a48.49,48.49,0,0,0-5-10.12L133.89,4.5A3.74,3.74,0,0,1,139,5.87l1.88,3.25a3.76,3.76,0,0,1-1.37,5.13ZM150,43.12v3.76a3.74,3.74,0,0,1-3.75,3.74H122.78a48.05,48.05,0,0,0,1-9.37c0-.63-.07-1.25-.1-1.87h22.6A3.74,3.74,0,0,1,150,43.12Z"/></g></g></svg>